# Blender v3.6.2 OBJ File: 'diamond.blend'
# www.blender.org
mtllib diamond.mtl
o Diamond_Plane
v -0.556035 0.825102 0.556035
v 0.556035 0.825102 0.556035
v -0.556035 0.825102 -0.556035
v 0.556035 0.825102 -0.556035
v -0.758622 0.825102 0.000000
v 0.000000 0.825102 0.758622
v 0.758622 0.825102 0.000000
v 0.000000 0.825102 -0.758622
v 0.000000 0.000000 -0.000000
v -0.295849 1.132425 0.295849
v 0.295849 1.132425 0.295849
v -0.295849 1.132425 -0.295849
v 0.295849 1.132425 -0.295849
v -0.403639 1.132425 0.000000
v 0.000000 1.132425 0.403639
v 0.403639 1.132425 0.000000
v 0.000000 1.132425 -0.403639
vt 0.783071 0.832354
vt 0.550731 0.453171
vt 0.936430 0.667198
vt 0.995421 0.449676
vt 0.904602 0.308101
vt 0.903687 0.304701
vt 0.550601 0.451670
vt 0.868112 0.140305
vt 0.672802 0.027834
vt 0.447594 0.019061
vt 0.329957 0.139283
vt 0.614883 0.830204
vt 0.561024 0.586974
vt 0.561024 0.819869
vt 0.429764 0.772046
vt 0.429764 0.648130
vt 0.411205 0.998179
vt 0.178310 0.998179
vt 0.226133 0.866919
vt 0.350050 0.866919
vt -0.000000 0.848360
vt -0.000000 0.615465
vt 0.131260 0.663289
vt 0.131260 0.787205
vt 0.149819 0.437155
vt 0.382714 0.437155
vt 0.334891 0.568416
vt 0.210974 0.568416
vn 0.2591 0.6537 0.7110
vn -0.2591 0.6537 0.7110
vn -0.7110 0.6537 0.2591
vn -0.7110 0.6537 -0.2591
vn -0.2591 0.6537 -0.7110
vn 0.2591 0.6537 -0.7110
vn 0.7110 0.6537 -0.2591
vn 0.7110 0.6537 0.2591
vn 0.2320 -0.7354 0.6367
vn -0.6367 -0.7354 0.2320
vn -0.2320 -0.7354 -0.6367
vn 0.6367 -0.7354 -0.2320
vn -0.2320 -0.7354 0.6367
vn -0.6367 -0.7354 -0.2320
vn 0.2320 -0.7354 -0.6367
vn 0.6367 -0.7354 0.2320
vn 0.0000 -1.0000 0.0000
usemtl 86343.jpg
s off
f 3/1/1 9/2/1 8/3/1
f 8/3/2 9/2/2 4/4/2
f 4/4/3 9/2/3 7/5/3
f 7/6/4 9/7/4 2/8/4
f 2/8/5 9/7/5 6/9/5
f 6/9/6 9/7/6 1/10/6
f 1/10/7 9/7/7 5/11/7
f 5/12/8 9/2/8 3/1/8
f 3/13/9 8/14/9 17/15/9 12/16/9
f 4/17/10 7/18/10 16/19/10 13/20/10
f 2/21/11 6/22/11 15/23/11 11/24/11
f 1/25/12 5/26/12 14/27/12 10/28/12
f 8/14/13 4/17/13 13/20/13 17/15/13
f 7/18/14 2/21/14 11/24/14 16/19/14
f 6/22/15 1/25/15 10/28/15 15/23/15
f 5/26/16 3/13/16 12/16/16 14/27/16
f 12/16/17 17/15/17 13/20/17 16/19/17 11/24/17 15/23/17 10/28/17 14/27/17
